<svg version="1.1" xmlns="http://www.w3.org/2000/svg" viewBox="0 0 1861.6091269841272 3802.826984126985" width="5584.827380952382" height="11408.480952380954">
  <!-- svg-source:excalidraw -->
  
  <defs>
    <style class="style-fonts">
      @font-face {
        font-family: "Virgil";
        src: url("https://excalidraw.com/Virgil.woff2");
      }
      @font-face {
        font-family: "Cascadia";
        src: url("https://excalidraw.com/Cascadia.woff2");
      }
    </style>
    
  </defs>
  <rect x="0" y="0" width="1861.6091269841272" height="3802.826984126985" fill="#ffffff"></rect><g stroke-linecap="round" transform="translate(1731.6091269841272 3500.8555555555563) rotate(0 60 98.57142857142844)"><path d="M30 0 C48.62 -0.32, 63.74 -3.32, 90 0 C110.13 -3.03, 117.11 13.23, 120 30 C116.35 76.95, 114.45 122.06, 120 167.14 C122.29 186.04, 108.09 197.76, 90 197.14 C67.59 199.6, 47.42 200.23, 30 197.14 C13.55 198.19, 1.7 189.45, 0 167.14 C2.59 125.76, 4.1 83.75, 0 30 C-0.96 7.14, 13.25 -0.8, 30 0" stroke="none" stroke-width="0" fill="#ffffff"></path><path d="M30 0 C45.16 1.59, 59.98 1.35, 90 0 M30 0 C45.01 -0.33, 58.84 -1.33, 90 0 M90 0 C111.75 1.79, 121.65 9.14, 120 30 M90 0 C108.31 -1.6, 118.56 10.66, 120 30 M120 30 C117.92 78.54, 119.03 124.49, 120 167.14 M120 30 C121.75 59.7, 121.84 91.23, 120 167.14 M120 167.14 C118.9 189.01, 110.93 196.21, 90 197.14 M120 167.14 C119.9 186.94, 111.54 197.7, 90 197.14 M90 197.14 C77.27 198.38, 61.25 196.09, 30 197.14 M90 197.14 C72.53 196.28, 53.89 195.97, 30 197.14 M30 197.14 C10.73 196.94, -0.28 188.46, 0 167.14 M30 197.14 C10.41 198.84, 0.59 186.42, 0 167.14 M0 167.14 C1.16 111.35, 1.33 56.44, 0 30 M0 167.14 C1.44 115.69, 0.38 63.37, 0 30 M0 30 C-0.19 11.94, 9.16 1.81, 30 0 M0 30 C-0.78 9.2, 9.75 -1.12, 30 0" stroke="#1e1e1e" stroke-width="2" fill="none"></path></g><g stroke-linecap="round" transform="translate(1691.6091269841272 3524.8555555555563) rotate(0 60 98.57142857142844)"><path d="M30 0 C46.21 -1.59, 58.16 -1.68, 90 0 C108.99 -3.37, 119.89 10.57, 120 30 C118.77 73, 122 108.83, 120 167.14 C121.73 183.9, 108.56 195.88, 90 197.14 C73.29 198.81, 56.82 197.83, 30 197.14 C10.06 193.73, -3.16 187.06, 0 167.14 C1.82 126.87, -0.67 79.64, 0 30 C-0.86 8.25, 8.03 2.46, 30 0" stroke="none" stroke-width="0" fill="#ffffff"></path><path d="M30 0 C54.16 0.39, 74.17 -0.72, 90 0 M30 0 C43.75 0.94, 58.07 0.27, 90 0 M90 0 C109.83 1.71, 118.52 8.52, 120 30 M90 0 C112.08 0.52, 121.66 7.72, 120 30 M120 30 C121.78 83.37, 120.37 137.72, 120 167.14 M120 30 C119.5 63.47, 120.69 97.99, 120 167.14 M120 167.14 C118.32 186.51, 110.87 198.34, 90 197.14 M120 167.14 C121.04 185.07, 109.31 195.38, 90 197.14 M90 197.14 C75.85 196.27, 62.43 197.28, 30 197.14 M90 197.14 C75.26 197.23, 60.99 196.53, 30 197.14 M30 197.14 C9.28 195.87, 0.96 187.59, 0 167.14 M30 197.14 C10.5 196.64, -1.54 186.08, 0 167.14 M0 167.14 C-1.39 111.87, -0.41 60.85, 0 30 M0 167.14 C0.01 122.36, -0.77 79.03, 0 30 M0 30 C0.34 11.04, 11.26 0.56, 30 0 M0 30 C2.21 11.93, 7.75 -0.54, 30 0" stroke="#1e1e1e" stroke-width="2" fill="none"></path></g><g stroke-linecap="round" transform="translate(1657.6091269841272 2772.855555555556) rotate(0 59 99)"><path d="M29.5 0 C49.31 1.24, 75.52 -1.65, 88.5 0 C108.26 0.04, 121.22 8.41, 118 29.5 C123.4 82.58, 120.31 128.12, 118 168.5 C118.14 189.49, 109.97 200.3, 88.5 198 C75.58 201.86, 62.88 198.25, 29.5 198 C12.71 199.7, -0.08 186.36, 0 168.5 C0.42 114.53, -3.45 59.37, 0 29.5 C-1.06 11.53, 13.13 -1.69, 29.5 0" stroke="none" stroke-width="0" fill="#ffffff"></path><path d="M29.5 0 C44.25 -0.33, 64.19 0.39, 88.5 0 M29.5 0 C40.68 0.3, 54.09 -0.18, 88.5 0 M88.5 0 C107.27 -0.18, 118.57 10.02, 118 29.5 M88.5 0 C107.6 1.91, 118.77 9.02, 118 29.5 M118 29.5 C119.31 71.69, 119.64 118.52, 118 168.5 M118 29.5 C118.16 81.19, 118.8 134.77, 118 168.5 M118 168.5 C116.33 188.12, 108.16 197.45, 88.5 198 M118 168.5 C116.49 189.63, 106.64 197.85, 88.5 198 M88.5 198 C71.92 199.25, 55.27 196.94, 29.5 198 M88.5 198 C74.73 197.86, 60.49 198.75, 29.5 198 M29.5 198 C8.21 199.42, 0.75 186.47, 0 168.5 M29.5 198 C9.68 195.92, -2.01 188.36, 0 168.5 M0 168.5 C1.28 136.25, -1.19 109.08, 0 29.5 M0 168.5 C1.08 114.63, 1.2 60.2, 0 29.5 M0 29.5 C-0.38 11.43, 10.1 0.93, 29.5 0 M0 29.5 C-0.23 11.18, 11.82 -0.83, 29.5 0" stroke="#1e1e1e" stroke-width="2" fill="none"></path></g><g transform="translate(108.22619047619037 10) rotate(0 263.671875 21.599999999999994)"><text x="0" y="0" font-family="Cascadia, Segoe UI Emoji" font-size="36px" fill="#e03131" text-anchor="start" style="white-space: pre;" direction="ltr" dominant-baseline="text-before-edge">Twitter High level design</text></g><g stroke-linecap="round"><g transform="translate(116.22619047619037 56) rotate(0 255.07142857142856 2.2857142857142776)"><path d="M0 0.08 C85.02 0.84, 424.99 3.9, 510 4.63 M-0.19 -0.01 C84.88 0.69, 425.26 3.62, 510.28 4.38" stroke="#e03131" stroke-width="1" fill="none"></path></g></g><mask></mask><g transform="translate(10.162698412698546 143.6746031746033) rotate(0 196.875 16.80000000000001)"><text x="0" y="0" font-family="Cascadia, Segoe UI Emoji" font-size="28px" fill="#e03131" text-anchor="start" style="white-space: pre;" direction="ltr" dominant-baseline="text-before-edge">Functional Requirements:</text></g><g transform="translate(10.162698412698546 453.67460317460325) rotate(0 229.6875 16.80000000000001)"><text x="0" y="0" font-family="Cascadia, Segoe UI Emoji" font-size="28px" fill="#e03131" text-anchor="start" style="white-space: pre;" direction="ltr" dominant-baseline="text-before-edge">Non-Functional Requirements:</text></g><g transform="translate(10.162698412698546 781.6111111111115) rotate(0 262.5 16.80000000000001)"><text x="0" y="0" font-family="Cascadia, Segoe UI Emoji" font-size="28px" fill="#e03131" text-anchor="start" style="white-space: pre;" direction="ltr" dominant-baseline="text-before-edge">Back-of-the-envelope Estimation:</text></g><g transform="translate(10.162698412698546 205.89682539682548) rotate(0 500.390625 16.80000000000001)"><text x="0" y="0" font-family="Cascadia, Segoe UI Emoji" font-size="28px" fill="#1e1e1e" text-anchor="start" style="white-space: pre;" direction="ltr" dominant-baseline="text-before-edge">- User should be able to post tweets ( text,image,video etc.)</text></g><g transform="translate(10.162698412698546 258.11904761904765) rotate(0 360.9375 16.80000000000001)"><text x="0" y="0" font-family="Cascadia, Segoe UI Emoji" font-size="28px" fill="#1e1e1e" text-anchor="start" style="white-space: pre;" direction="ltr" dominant-baseline="text-before-edge">- Should be able to follow other users/pages</text></g><g transform="translate(10.162698412698546 308.5357142857144) rotate(0 352.734375 16.80000000000001)"><text x="0" y="0" font-family="Cascadia, Segoe UI Emoji" font-size="28px" fill="#1e1e1e" text-anchor="start" style="white-space: pre;" direction="ltr" dominant-baseline="text-before-edge">- Should be able to see the Feed (Timeline)</text></g><g transform="translate(10.162698412698546 527.7619047619048) rotate(0 377.34375 16.80000000000001)"><text x="0" y="0" font-family="Cascadia, Segoe UI Emoji" font-size="28px" fill="#1e1e1e" text-anchor="start" style="white-space: pre;" direction="ltr" dominant-baseline="text-before-edge">- Low latency (specially: Timeline generation)</text></g><g transform="translate(10.162698412698546 586.3333333333334) rotate(0 147.65625 16.80000000000001)"><text x="0" y="0" font-family="Cascadia, Segoe UI Emoji" font-size="28px" fill="#1e1e1e" text-anchor="start" style="white-space: pre;" direction="ltr" dominant-baseline="text-before-edge">- High Availabilty</text></g><g transform="translate(10.162698412698546 637.7619047619048) rotate(0 254.296875 16.80000000000001)"><text x="0" y="0" font-family="Cascadia, Segoe UI Emoji" font-size="28px" fill="#1e1e1e" text-anchor="start" style="white-space: pre;" direction="ltr" dominant-baseline="text-before-edge">- Eventual consistency is okay.</text></g><g transform="translate(10.162698412698546 860.6190476190477) rotate(0 336.328125 16.80000000000001)"><text x="0" y="0" font-family="Cascadia, Segoe UI Emoji" font-size="28px" fill="#1e1e1e" text-anchor="start" style="white-space: pre;" direction="ltr" dominant-baseline="text-before-edge">Daily active users(DAU) -&gt; 500M (million)</text></g><g transform="translate(10.162698412698546 1042.2063492063492) rotate(0 418.359375 16.799999999999955)"><text x="0" y="0" font-family="Cascadia, Segoe UI Emoji" font-size="28px" fill="#1e1e1e" text-anchor="start" style="white-space: pre;" direction="ltr" dominant-baseline="text-before-edge">Timeline generations per person -&gt; 3 timelines/day </text></g><g transform="translate(10.162698412698546 1119.3492063492065) rotate(0 90.234375 16.799999999999955)"><text x="0" y="0" font-family="Cascadia, Segoe UI Emoji" font-size="28px" fill="#1e1e1e" text-anchor="start" style="white-space: pre;" direction="ltr" dominant-baseline="text-before-edge">500x10^6 x3</text></g><g stroke-linecap="round"><g transform="translate(11.591269841269991 1155.063492063492) rotate(0 91.41737328906606 -0.7454676490161773)"><path d="M0.01 -0.02 C30.5 -0.24, 152.53 -1.25, 183 -1.48 M-0.16 -0.15 C30.32 -0.34, 152.48 -1.07, 182.95 -1.31" stroke="#1e1e1e" stroke-width="1" fill="none"></path></g></g><mask></mask><g transform="translate(75.87698412698433 1165.0634920634923) rotate(0 32.8125 16.799999999999955)"><text x="0" y="0" font-family="Cascadia, Segoe UI Emoji" font-size="28px" fill="#1e1e1e" text-anchor="start" style="white-space: pre;" direction="ltr" dominant-baseline="text-before-edge">10^5</text></g><g transform="translate(218.7341269841271 1130.777777777778) rotate(0 155.85937500000006 16.799999999999955)"><text x="0" y="0" font-family="Cascadia, Segoe UI Emoji" font-size="28px" fill="#1e1e1e" text-anchor="start" style="white-space: pre;" direction="ltr" dominant-baseline="text-before-edge">= 15K timelines/sec</text></g><g transform="translate(10.162698412698546 1232.2063492063492) rotate(0 213.28125 16.799999999999955)"><text x="0" y="0" font-family="Cascadia, Segoe UI Emoji" font-size="28px" fill="#1e1e1e" text-anchor="start" style="white-space: pre;" direction="ltr" dominant-baseline="text-before-edge">Read per second -&gt; 15K/sec</text></g><g transform="translate(10.162698412698546 1395.063492063492) rotate(0 213.28125 16.799999999999955)"><text x="0" y="0" font-family="Cascadia, Segoe UI Emoji" font-size="28px" fill="#1e1e1e" text-anchor="start" style="white-space: pre;" direction="ltr" dominant-baseline="text-before-edge">write per second -&gt; 2K/sec</text></g><g transform="translate(21.423859126984212 1473.2634920634919) rotate(0 139.453125 16.799999999999955)"><text x="0" y="0" font-family="Cascadia, Segoe UI Emoji" font-size="28px" fill="#f08c00" text-anchor="start" style="white-space: pre;" direction="ltr" dominant-baseline="text-before-edge">Read heavy system</text></g><g stroke-linecap="round" transform="translate(10.162698412698546 1463.6349206349205) rotate(0 150.71428571428567 26.428571428571445)"><path d="M13.21 0 C88.93 -0.87, 165.84 0.84, 288.21 0 M13.21 0 C114.92 -0.62, 217.24 -0.88, 288.21 0 M288.21 0 C296.35 -0.25, 302.87 2.69, 301.43 13.21 M288.21 0 C295.03 1.12, 302.28 5.02, 301.43 13.21 M301.43 13.21 C300.37 20.57, 299.92 29.36, 301.43 39.64 M301.43 13.21 C301.84 19.49, 301.49 25.45, 301.43 39.64 M301.43 39.64 C299.88 47.45, 296.42 53.38, 288.21 52.86 M301.43 39.64 C301.33 48.43, 295.97 54.73, 288.21 52.86 M288.21 52.86 C197.08 52.59, 109.33 51.4, 13.21 52.86 M288.21 52.86 C214.75 52.51, 140.93 51.82, 13.21 52.86 M13.21 52.86 C3.41 51.12, 1.92 49.9, 0 39.64 M13.21 52.86 C2.28 50.58, -1.4 50.65, 0 39.64 M0 39.64 C0.76 34.67, -1.14 27.51, 0 13.21 M0 39.64 C-0.6 30.33, 0.35 23.09, 0 13.21 M0 13.21 C-0.8 2.44, 2.42 0.92, 13.21 0 M0 13.21 C-0.7 6.37, 2.46 -2.14, 13.21 0" stroke="#f08c00" stroke-width="1" fill="none"></path></g><g transform="translate(10.162698412698546 926.6190476190477) rotate(0 188.671875 16.799999999999955)"><text x="0" y="0" font-family="Cascadia, Segoe UI Emoji" font-size="28px" fill="#1e1e1e" text-anchor="start" style="white-space: pre;" direction="ltr" dominant-baseline="text-before-edge">Users who tweet -&gt; 100M</text></g><g transform="translate(10.162698412698546 969.9523809523812) rotate(0 147.65625 16.799999999999955)"><text x="0" y="0" font-family="Cascadia, Segoe UI Emoji" font-size="28px" fill="#1e1e1e" text-anchor="start" style="white-space: pre;" direction="ltr" dominant-baseline="text-before-edge">Avg posts -&gt; 2/day</text></g><g transform="translate(10.162698412698546 1310.0634920634923) rotate(0 172.265625 16.799999999999955)"><text x="0" y="0" font-family="Cascadia, Segoe UI Emoji" font-size="28px" fill="#1e1e1e" text-anchor="start" style="white-space: pre;" direction="ltr" dominant-baseline="text-before-edge">100x 10^6 x 2 (posts)</text></g><g stroke-linecap="round"><g transform="translate(13.03968253968253 1342.1746031746034) rotate(0 103.3005006489806 0.015126264368973352)"><path d="M-0.07 0.1 C34.39 0.07, 172.21 -0.07, 206.67 -0.07 M0.16 0.02 C34.61 0, 172.15 0.11, 206.56 0.08" stroke="#1e1e1e" stroke-width="1" fill="none"></path></g></g><mask></mask><g transform="translate(96.37301587301579 1346.619047619048) rotate(0 32.8125 16.799999999999955)"><text x="0" y="0" font-family="Cascadia, Segoe UI Emoji" font-size="28px" fill="#1e1e1e" text-anchor="start" style="white-space: pre;" direction="ltr" dominant-baseline="text-before-edge">10^5</text></g><g transform="translate(379.70634920634916 1318.84126984127) rotate(0 114.84375 16.799999999999955)"><text x="0" y="0" font-family="Cascadia, Segoe UI Emoji" font-size="28px" fill="#1e1e1e" text-anchor="start" style="white-space: pre;" direction="ltr" dominant-baseline="text-before-edge">= 2k posts/sec</text></g><g transform="translate(10 1632.2103174603176) rotate(0 123.046875 84)"><text x="0" y="0" font-family="Cascadia, Segoe UI Emoji" font-size="28px" fill="#1e1e1e" text-anchor="start" style="white-space: pre;" direction="ltr" dominant-baseline="text-before-edge">200M posts/day</text><text x="0" y="33.6" font-family="Cascadia, Segoe UI Emoji" font-size="28px" fill="#1e1e1e" text-anchor="start" style="white-space: pre;" direction="ltr" dominant-baseline="text-before-edge"></text><text x="0" y="67.2" font-family="Cascadia, Segoe UI Emoji" font-size="28px" fill="#1e1e1e" text-anchor="start" style="white-space: pre;" direction="ltr" dominant-baseline="text-before-edge">avg 1kb/post</text><text x="0" y="100.80000000000001" font-family="Cascadia, Segoe UI Emoji" font-size="28px" fill="#1e1e1e" text-anchor="start" style="white-space: pre;" direction="ltr" dominant-baseline="text-before-edge"></text><text x="0" y="134.4" font-family="Cascadia, Segoe UI Emoji" font-size="28px" fill="#1e1e1e" text-anchor="start" style="white-space: pre;" direction="ltr" dominant-baseline="text-before-edge">200x10^6 x 10^3</text></g><g transform="translate(285 1764.7103174603176) rotate(0 164.0625 16.799999999999955)"><text x="0" y="0" font-family="Cascadia, Segoe UI Emoji" font-size="28px" fill="#1e1e1e" text-anchor="start" style="white-space: pre;" direction="ltr" dominant-baseline="text-before-edge">= 2x 10^11 bytes/day</text></g><g transform="translate(295 1835.9603174603176) rotate(0 98.4375 16.799999999999955)"><text x="0" y="0" font-family="Cascadia, Segoe UI Emoji" font-size="28px" fill="#1e1e1e" text-anchor="start" style="white-space: pre;" direction="ltr" dominant-baseline="text-before-edge">= 200 GB/day</text></g><g transform="translate(37.5 1903.4603174603176) rotate(0 213.28125 16.799999999999955)"><text x="0" y="0" font-family="Cascadia, Segoe UI Emoji" font-size="28px" fill="#1e1e1e" text-anchor="start" style="white-space: pre;" direction="ltr" dominant-baseline="text-before-edge">10years -&gt; 200x10^9x365x10</text></g><g transform="translate(187.5 1985.9603174603176) rotate(0 98.4375 16.799999999999955)"><text x="0" y="0" font-family="Cascadia, Segoe UI Emoji" font-size="28px" fill="#1e1e1e" text-anchor="start" style="white-space: pre;" direction="ltr" dominant-baseline="text-before-edge">-&gt; 700x10^12</text></g><g transform="translate(190 2058.4603174603176) rotate(0 106.640625 16.799999999999955)"><text x="0" y="0" font-family="Cascadia, Segoe UI Emoji" font-size="28px" fill="#1e1e1e" text-anchor="start" style="white-space: pre;" direction="ltr" dominant-baseline="text-before-edge">-&gt; 700 TB/day</text></g><g transform="translate(11.25 1588.4603174603176) rotate(0 65.625 16.799999999999955)"><text x="0" y="0" font-family="Cascadia, Segoe UI Emoji" font-size="28px" fill="#e03131" text-anchor="start" style="white-space: pre;" direction="ltr" dominant-baseline="text-before-edge">Storage:</text></g><g transform="translate(28.75 2165.9603174603176) rotate(0 172.265625 151.20000000000005)"><text x="0" y="0" font-family="Cascadia, Segoe UI Emoji" font-size="28px" fill="#e03131" text-anchor="start" style="white-space: pre;" direction="ltr" dominant-baseline="text-before-edge">API:</text><text x="0" y="33.6" font-family="Cascadia, Segoe UI Emoji" font-size="28px" fill="#e03131" text-anchor="start" style="white-space: pre;" direction="ltr" dominant-baseline="text-before-edge">1./Feed :GET</text><text x="0" y="67.2" font-family="Cascadia, Segoe UI Emoji" font-size="28px" fill="#e03131" text-anchor="start" style="white-space: pre;" direction="ltr" dominant-baseline="text-before-edge">  - Body Params</text><text x="0" y="100.80000000000001" font-family="Cascadia, Segoe UI Emoji" font-size="28px" fill="#e03131" text-anchor="start" style="white-space: pre;" direction="ltr" dominant-baseline="text-before-edge">    - Auth_Token</text><text x="0" y="134.4" font-family="Cascadia, Segoe UI Emoji" font-size="28px" fill="#e03131" text-anchor="start" style="white-space: pre;" direction="ltr" dominant-baseline="text-before-edge"></text><text x="0" y="168" font-family="Cascadia, Segoe UI Emoji" font-size="28px" fill="#e03131" text-anchor="start" style="white-space: pre;" direction="ltr" dominant-baseline="text-before-edge">2./Create Tweet :POST</text><text x="0" y="201.60000000000002" font-family="Cascadia, Segoe UI Emoji" font-size="28px" fill="#e03131" text-anchor="start" style="white-space: pre;" direction="ltr" dominant-baseline="text-before-edge">  - Body Params:</text><text x="0" y="235.20000000000002" font-family="Cascadia, Segoe UI Emoji" font-size="28px" fill="#e03131" text-anchor="start" style="white-space: pre;" direction="ltr" dominant-baseline="text-before-edge">    - Content</text><text x="0" y="268.8" font-family="Cascadia, Segoe UI Emoji" font-size="28px" fill="#e03131" text-anchor="start" style="white-space: pre;" direction="ltr" dominant-baseline="text-before-edge">    - Auth_Token </text></g><g stroke-linecap="round" transform="translate(139.60912698412744 2938.569841269842) rotate(0 119.28571428571422 96.42857142857133)"><path d="M32 0 C65.61 2.15, 103.64 1.52, 206.57 0 M32 0 C72.74 -0.14, 113.4 -0.8, 206.57 0 M206.57 0 C229.74 0.77, 237.6 10.19, 238.57 32 M206.57 0 C226.29 2.17, 238.23 9.86, 238.57 32 M238.57 32 C239.14 70.45, 241.26 110.42, 238.57 160.86 M238.57 32 C238.84 65.91, 238.85 98.08, 238.57 160.86 M238.57 160.86 C239.85 184.15, 227.37 191.35, 206.57 192.86 M238.57 160.86 C239.28 179.98, 227.63 192.17, 206.57 192.86 M206.57 192.86 C170.33 191.32, 132.6 193.5, 32 192.86 M206.57 192.86 C159 192.12, 112.87 192.52, 32 192.86 M32 192.86 C12.5 194.53, -0.28 183.64, 0 160.86 M32 192.86 C8.49 194.18, 1.34 183.83, 0 160.86 M0 160.86 C0.44 127.02, 2.47 92.55, 0 32 M0 160.86 C-0.91 133.77, 0.29 104.14, 0 32 M0 32 C0.34 10.28, 10.62 -1.08, 32 0 M0 32 C0.37 9.13, 10.66 0.3, 32 0" stroke="#1e1e1e" stroke-width="2" fill="none"></path></g><g transform="translate(206.16046626984166 3013.3984126984137) rotate(0 52.734375 21.59999999999991)"><text x="0" y="0" font-family="Cascadia, Segoe UI Emoji" font-size="36px" fill="#1e1e1e" text-anchor="start" style="white-space: pre;" direction="ltr" dominant-baseline="text-before-edge">Users</text></g><g stroke-linecap="round"><g transform="translate(396.7519841269843 3002.855555555556) rotate(0 195.7480783818321 -0.0920446609920873)"><path d="M-0.1 -0.01 C65.12 0.01, 326.06 0.04, 391.32 0.03 M0.12 -0.13 C65.39 -0.17, 326.39 -0.25, 391.59 -0.21" stroke="#1e1e1e" stroke-width="2" fill="none"></path></g><g transform="translate(396.7519841269843 3002.855555555556) rotate(0 195.7480783818321 -0.0920446609920873)"><path d="M363.4 10.05 C371.73 6.84, 380.14 4.06, 391.59 -0.21 M363.4 10.05 C371.42 7.01, 379.65 4.07, 391.59 -0.21" stroke="#1e1e1e" stroke-width="2" fill="none"></path></g><g transform="translate(396.7519841269843 3002.855555555556) rotate(0 195.7480783818321 -0.0920446609920873)"><path d="M363.4 -10.47 C371.72 -7.62, 380.13 -4.33, 391.59 -0.21 M363.4 -10.47 C371.42 -7.59, 379.65 -4.6, 391.59 -0.21" stroke="#1e1e1e" stroke-width="2" fill="none"></path></g></g><mask></mask><g transform="translate(501.0376984126988 2948.569841269842) rotate(0 116.015625 21.59999999999991)"><text x="0" y="0" font-family="Cascadia, Segoe UI Emoji" font-size="36px" fill="#1e1e1e" text-anchor="start" style="white-space: pre;" direction="ltr" dominant-baseline="text-before-edge">POST(tweet)</text></g><g stroke-linecap="round" transform="translate(811.0376984126985 2881.4269841269847) rotate(0 64.28571428571433 239.28571428571422)"><path d="M32 0 C45.69 -0.88, 61.09 -0.64, 96.57 0 M32 0 C45.51 -0.05, 58.12 1.04, 96.57 0 M96.57 0 C117.9 1.38, 128.99 10.14, 128.57 32 M96.57 0 C119.02 -0.77, 127.44 11.73, 128.57 32 M128.57 32 C129.67 165.01, 129.9 297.47, 128.57 446.57 M128.57 32 C127.44 191.41, 127.88 352.21, 128.57 446.57 M128.57 446.57 C127.01 468.21, 115.97 480.19, 96.57 478.57 M128.57 446.57 C127.33 468.93, 118.89 476.82, 96.57 478.57 M96.57 478.57 C76.4 477.84, 53.38 476.6, 32 478.57 M96.57 478.57 C76.62 479.56, 58.35 478, 32 478.57 M32 478.57 C8.73 480.45, -0.74 468.24, 0 446.57 M32 478.57 C10.59 477.87, 1.38 469.11, 0 446.57 M0 446.57 C2.07 297.82, 1.07 150.54, 0 32 M0 446.57 C-1.55 290.96, -1.28 135.67, 0 32 M0 32 C-1.44 11.38, 10.4 -1.97, 32 0 M0 32 C-2.24 9.29, 9.09 -0.08, 32 0" stroke="#1e1e1e" stroke-width="2" fill="none"></path></g><g transform="translate(766.7519841269843 2814.2841269841274) rotate(0 116.015625 21.59999999999991)"><text x="0" y="0" font-family="Cascadia, Segoe UI Emoji" font-size="36px" fill="#1e1e1e" text-anchor="start" style="white-space: pre;" direction="ltr" dominant-baseline="text-before-edge">API Gateway</text></g><g stroke-linecap="round" transform="translate(1166.7519841269839 2915.7126984126994) rotate(0 69.28571428571433 65.71428571428578)"><path d="M32 0 C61.63 1.65, 90.53 1.56, 106.57 0 M32 0 C50.13 0.85, 68.08 1.03, 106.57 0 M106.57 0 C126.54 -2, 138.29 11.27, 138.57 32 M106.57 0 C126.95 -1.67, 138.9 10.38, 138.57 32 M138.57 32 C138.3 56.06, 136.08 78.65, 138.57 99.43 M138.57 32 C139 46.84, 137.45 61.12, 138.57 99.43 M138.57 99.43 C138.85 122.63, 126.46 130.24, 106.57 131.43 M138.57 99.43 C140.03 119.54, 126.71 133.5, 106.57 131.43 M106.57 131.43 C81.3 132.43, 51.73 130.31, 32 131.43 M106.57 131.43 C77.82 131.52, 48.28 130.32, 32 131.43 M32 131.43 C9.07 131.06, 0.23 120.47, 0 99.43 M32 131.43 C12.93 132.61, 0.19 120.77, 0 99.43 M0 99.43 C-0.51 83.76, 0.36 69.5, 0 32 M0 99.43 C-1.13 83.46, -0.09 68.8, 0 32 M0 32 C-1.63 10.5, 11.55 0.92, 32 0 M0 32 C-1.77 12.09, 11.12 -0.72, 32 0" stroke="#1e1e1e" stroke-width="2" fill="none"></path></g><g stroke-linecap="round" transform="translate(1141.0376984126983 2901.4269841269847) rotate(0 69.28571428571433 65.71428571428578)"><path d="M32 0 C57.03 4.02, 87.1 -0.74, 106.57 0 C127.91 1.58, 135.77 7.93, 138.57 32 C137.83 50.4, 140.19 62.02, 138.57 99.43 C138.58 118.23, 125.2 133.21, 106.57 131.43 C89.86 128.88, 70.87 130.03, 32 131.43 C7.61 130.25, 0.66 123.14, 0 99.43 C1.75 81.94, 2.33 70.7, 0 32 C-1.13 9.65, 8.95 1.03, 32 0" stroke="none" stroke-width="0" fill="#ffffff"></path><path d="M32 0 C51.1 1.25, 71.89 -1.79, 106.57 0 M32 0 C59.56 0.02, 85.63 1.15, 106.57 0 M106.57 0 C127.58 1, 137.79 9.93, 138.57 32 M106.57 0 C126.13 -0.73, 138.81 10.17, 138.57 32 M138.57 32 C140 56.18, 139.2 77.13, 138.57 99.43 M138.57 32 C138.92 55.38, 137.88 79.59, 138.57 99.43 M138.57 99.43 C137.57 119.09, 126.09 131.66, 106.57 131.43 M138.57 99.43 C137.27 122.72, 128.77 130.57, 106.57 131.43 M106.57 131.43 C82.07 130.77, 56.69 131.05, 32 131.43 M106.57 131.43 C86.88 130.22, 64.72 130.76, 32 131.43 M32 131.43 C11.27 130.59, -1.45 121.05, 0 99.43 M32 131.43 C10.38 132.7, -2.25 119.77, 0 99.43 M0 99.43 C-1.29 76.28, -0.56 55.33, 0 32 M0 99.43 C-0.54 75.23, 0.93 50.03, 0 32 M0 32 C-1.19 11.93, 9.6 -1.04, 32 0 M0 32 C2.07 12.01, 11.36 1.3, 32 0" stroke="#1e1e1e" stroke-width="2" fill="none"></path></g><g stroke-linecap="round" transform="translate(1119.609126984127 2879.9984126984127) rotate(0 69.28571428571433 70)"><path d="M32 0 C53.86 -0.38, 72.46 0.58, 106.57 0 C128 -0.49, 139.54 8.73, 138.57 32 C137.1 57.24, 136.64 92.59, 138.57 108 C141.73 130.99, 127.54 138.71, 106.57 140 C89.79 142.55, 75.15 137.32, 32 140 C12.01 136.41, -2.1 131.99, 0 108 C3.16 90.72, -2.19 68.97, 0 32 C-2.69 9.8, 10.16 2.4, 32 0" stroke="none" stroke-width="0" fill="#ffffff"></path><path d="M32 0 C49.52 0.46, 66.7 0.67, 106.57 0 M32 0 C52.61 0.5, 73.83 0.08, 106.57 0 M106.57 0 C126.31 -0.57, 138.72 10.08, 138.57 32 M106.57 0 C129.48 -0.75, 138.18 12.27, 138.57 32 M138.57 32 C136.12 47.64, 138.56 64.29, 138.57 108 M138.57 32 C139.51 51.74, 138.37 70.09, 138.57 108 M138.57 108 C137.65 129.91, 126.67 140.73, 106.57 140 M138.57 108 C136.38 129.44, 126.64 139.35, 106.57 140 M106.57 140 C82.2 138.17, 54.84 137.94, 32 140 M106.57 140 C80.51 140.28, 53.56 138.74, 32 140 M32 140 C11.3 138.11, -1.37 131.04, 0 108 M32 140 C11.66 138.8, 0.15 127.65, 0 108 M0 108 C-1.29 85.43, 1.44 67.98, 0 32 M0 108 C-0.16 80.52, 1.39 51.01, 0 32 M0 32 C-0.28 9.39, 10.89 1.09, 32 0 M0 32 C0.23 11.27, 8.6 -1.34, 32 0" stroke="#1e1e1e" stroke-width="2" fill="none"></path></g><g transform="translate(1129.8850756448414 2908.5984126984126) rotate(0 59.009765625 41.40000000000009)"><text x="59.009765625" y="0" font-family="Helvetica, Segoe UI Emoji" font-size="36px" fill="#1e1e1e" text-anchor="middle" style="white-space: pre;" direction="ltr" dominant-baseline="text-before-edge">API </text><text x="59.009765625" y="41.4" font-family="Helvetica, Segoe UI Emoji" font-size="36px" fill="#1e1e1e" text-anchor="middle" style="white-space: pre;" direction="ltr" dominant-baseline="text-before-edge">servers</text></g><g stroke-linecap="round" transform="translate(1625.6091269841272 2796.855555555556) rotate(0 59 99)"><path d="M29.5 0 C44.52 -1.83, 60.37 2.66, 88.5 0 C108.1 -2.57, 118.26 8.66, 118 29.5 C122.57 82, 123.41 124.9, 118 168.5 C115.08 187.19, 111.09 198.98, 88.5 198 C63.19 201.09, 40.2 198.9, 29.5 198 C6.65 196.88, 2.99 189.14, 0 168.5 C0.26 123.73, -0.51 76.19, 0 29.5 C-0.11 6.76, 6.35 0.98, 29.5 0" stroke="none" stroke-width="0" fill="#ffffff"></path><path d="M29.5 0 C47.06 -1.15, 60.59 -1.14, 88.5 0 M29.5 0 C46.5 0.77, 65.66 0.3, 88.5 0 M88.5 0 C107.4 -0.93, 119.62 10.7, 118 29.5 M88.5 0 C108.57 -0.79, 119.39 8.36, 118 29.5 M118 29.5 C119.88 77.6, 116.76 128.16, 118 168.5 M118 29.5 C117.78 58.84, 117.1 86.63, 118 168.5 M118 168.5 C119.27 187.25, 109 199.51, 88.5 198 M118 168.5 C117.96 186.88, 106.39 198.46, 88.5 198 M88.5 198 C71.68 199.34, 55.31 196.95, 29.5 198 M88.5 198 C68.57 198.43, 46.85 197.85, 29.5 198 M29.5 198 C11.17 197.71, 0.48 187.53, 0 168.5 M29.5 198 C7.64 198.28, -1.5 190.08, 0 168.5 M0 168.5 C0.34 139.02, -0.95 107.76, 0 29.5 M0 168.5 C0.73 130.15, 0.25 88.99, 0 29.5 M0 29.5 C1.13 9.59, 11.64 1.59, 29.5 0 M0 29.5 C2.02 10.53, 11 -0.55, 29.5 0" stroke="#1e1e1e" stroke-width="2" fill="none"></path></g><g stroke-linecap="round" transform="translate(1568.1805555555557 2821.4269841269847) rotate(0 69.28571428571422 105.71428571428555)"><path d="M32 0 C53.86 -0.74, 71.86 -3.54, 106.57 0 C128.08 -2.98, 136 13.91, 138.57 32 C141.07 74.38, 141.62 122.97, 138.57 179.43 C137.39 203.89, 129.12 210.29, 106.57 211.43 C80.18 211.26, 51.96 209.59, 32 211.43 C10.01 211.1, -2.38 202.99, 0 179.43 C2.45 136.03, 0.15 94.85, 0 32 C3.38 8.47, 12.71 -0.11, 32 0" stroke="none" stroke-width="0" fill="#ffffff"></path><path d="M32 0 C61.82 0.62, 91.16 1.83, 106.57 0 M32 0 C53.18 -0.08, 72.64 -0.45, 106.57 0 M106.57 0 C127.31 -1.99, 139.13 10.35, 138.57 32 M106.57 0 C127.43 1.68, 140.31 11.86, 138.57 32 M138.57 32 C139.48 68.8, 139.93 107.83, 138.57 179.43 M138.57 32 C139.2 69.42, 140.41 108.02, 138.57 179.43 M138.57 179.43 C138.98 202, 128.79 209.99, 106.57 211.43 M138.57 179.43 C137.67 201.22, 126.37 212.71, 106.57 211.43 M106.57 211.43 C88.91 211.42, 74.35 210.78, 32 211.43 M106.57 211.43 C90.86 211.7, 74.15 210.83, 32 211.43 M32 211.43 C11.83 209.69, 1.28 202.3, 0 179.43 M32 211.43 C12.55 210.27, -1.73 199.42, 0 179.43 M0 179.43 C-1.41 131.26, -0.81 85.77, 0 32 M0 179.43 C-1.05 129.39, -0.48 78.07, 0 32 M0 32 C-0.35 10.12, 12.19 1.09, 32 0 M0 32 C-1.5 12.39, 9.7 0.05, 32 0" stroke="#1e1e1e" stroke-width="2" fill="none"></path></g><g transform="translate(1612.4613870287699 2906.4412698412702) rotate(0 25.0048828125 20.700000000000045)"><text x="25.0048828125" y="0" font-family="Helvetica, Segoe UI Emoji" font-size="36px" fill="#1e1e1e" text-anchor="middle" style="white-space: pre;" direction="ltr" dominant-baseline="text-before-edge">DB</text></g><g transform="translate(1518.180555555556 3041.4269841269843) rotate(0 126.03515625 20.700000000000045)"><text x="0" y="0" font-family="Helvetica, Segoe UI Emoji" font-size="36px" fill="#1e1e1e" text-anchor="start" style="white-space: pre;" direction="ltr" dominant-baseline="text-before-edge">Users &amp; Tweets</text></g><g mask="url(#mask-yhJ23MGSE7ky9uC_O7hiw)" stroke-linecap="round"><g transform="translate(958.1805555555557 2932.855555555556) rotate(0 70.72801820869972 1.6940840901288539)"><path d="M-0.63 1.05 C23.11 1.24, 118.44 1.32, 142.08 1.34 M1.25 0.56 C24.91 0.92, 118.29 2.53, 141.48 2.83" stroke="#1e1e1e" stroke-width="2" fill="none"></path></g><g transform="translate(958.1805555555557 2932.855555555556) rotate(0 70.72801820869972 1.6940840901288539)"><path d="M113.13 12.66 C122.59 11.21, 128.41 7.13, 141.48 2.83 M113.13 12.66 C120.4 10.52, 127.92 7.38, 141.48 2.83" stroke="#1e1e1e" stroke-width="2" fill="none"></path></g><g transform="translate(958.1805555555557 2932.855555555556) rotate(0 70.72801820869972 1.6940840901288539)"><path d="M113.45 -7.86 C122.86 -3.71, 128.6 -2.2, 141.48 2.83 M113.45 -7.86 C120.73 -4.31, 128.17 -1.76, 141.48 2.83" stroke="#1e1e1e" stroke-width="2" fill="none"></path></g></g><mask id="mask-yhJ23MGSE7ky9uC_O7hiw"><rect x="0" y="0" fill="#fff" width="1199.6091269841272" height="3135.855555555556"></rect><rect x="1001.6682787698414" y="2922.069841269842" fill="#000" width="54.453125" height="23" opacity="1"></rect></mask><g stroke-linecap="round"><g transform="translate(1322.4662698412699 2949.998412698413) rotate(0 112.79685291831834 -0.0016904020187666902)"><path d="M0.08 0.11 C37.69 0.07, 188.05 -0.07, 225.65 -0.11 M-0.06 0.03 C37.54 0.01, 187.9 0.04, 225.51 0.02" stroke="#1e1e1e" stroke-width="2" fill="none"></path></g><g transform="translate(1322.4662698412699 2949.998412698413) rotate(0 112.79685291831834 -0.0016904020187666902)"><path d="M197.32 10.28 C205 7.42, 212.07 4.75, 225.51 0.02 M197.32 10.28 C202.99 8.13, 209 5.97, 225.51 0.02" stroke="#1e1e1e" stroke-width="2" fill="none"></path></g><g transform="translate(1322.4662698412699 2949.998412698413) rotate(0 112.79685291831834 -0.0016904020187666902)"><path d="M197.32 -10.24 C205.01 -7.65, 212.08 -4.87, 225.51 0.02 M197.32 -10.24 C202.97 -8.17, 208.98 -6.1, 225.51 0.02" stroke="#1e1e1e" stroke-width="2" fill="none"></path></g></g><mask></mask><g stroke-linecap="round" transform="translate(1128.1805555555554 3422.855555555556) rotate(0 141.42857142857144 77.14285714285711)"><path d="M32 0 C104.3 1.47, 174.22 -3.15, 250.86 0 C275.48 -0.65, 279.43 11.66, 282.86 32 C280.65 61.66, 284.46 84.57, 282.86 122.29 C279.88 146.67, 271.93 156.06, 250.86 154.29 C189.42 148.71, 129.14 151.39, 32 154.29 C10.16 152.1, -1.45 141.69, 0 122.29 C-3.1 89.21, -0.36 61.53, 0 32 C2.36 10.49, 13.31 -2.86, 32 0" stroke="none" stroke-width="0" fill="#ffffff"></path><path d="M32 0 C118.46 3.07, 203.6 1.62, 250.86 0 M32 0 C107.29 -0.57, 181.18 -0.75, 250.86 0 M250.86 0 C274.14 -0.78, 283.94 9.45, 282.86 32 M250.86 0 C272.99 2.09, 281.75 12.32, 282.86 32 M282.86 32 C281.17 54.35, 282.89 76.68, 282.86 122.29 M282.86 32 C283.11 65.3, 284.6 98.22, 282.86 122.29 M282.86 122.29 C284.61 141.87, 272.24 156.06, 250.86 154.29 M282.86 122.29 C284.63 145.16, 271 152.49, 250.86 154.29 M250.86 154.29 C167.13 156.71, 79.86 155.31, 32 154.29 M250.86 154.29 C180.07 156.46, 107.31 155.77, 32 154.29 M32 154.29 C10.24 154.97, 1.26 141.83, 0 122.29 M32 154.29 C8.39 152.91, -0.18 145.44, 0 122.29 M0 122.29 C-0.92 86.26, -0.12 52.24, 0 32 M0 122.29 C0.58 91.09, -0.73 60.54, 0 32 M0 32 C-0.3 9.16, 11.72 -0.13, 32 0 M0 32 C0.9 10.14, 11.66 -0.54, 32 0" stroke="#1e1e1e" stroke-width="2" fill="none"></path></g><g transform="translate(1202.258541046627 3458.598412698413) rotate(0 67.3505859375 41.40000000000009)"><text x="67.3505859375" y="0" font-family="Helvetica, Segoe UI Emoji" font-size="36px" fill="#1e1e1e" text-anchor="middle" style="white-space: pre;" direction="ltr" dominant-baseline="text-before-edge">Timeline</text><text x="67.3505859375" y="41.4" font-family="Helvetica, Segoe UI Emoji" font-size="36px" fill="#1e1e1e" text-anchor="middle" style="white-space: pre;" direction="ltr" dominant-baseline="text-before-edge">Service</text></g><g stroke-linecap="round"><g transform="translate(1215.40126050417 3067.1412698412705) rotate(0 13.429964078856528 169.40654755683022)"><path d="M-0.1 0.18 C4.43 56.61, 22.46 282.37, 26.96 338.76 M0.29 0.06 C4.81 56.41, 22.42 281.98, 26.83 338.43" stroke="#1e1e1e" stroke-width="2" fill="none"></path></g><g transform="translate(1215.40126050417 3067.1412698412705) rotate(0 13.429964078856528 169.40654755683022)"><path d="M14.41 311.12 C17.58 317.52, 20.39 323.58, 26.83 338.43 M14.41 311.12 C17.9 318.62, 21.42 326.4, 26.83 338.43" stroke="#1e1e1e" stroke-width="2" fill="none"></path></g><g transform="translate(1215.40126050417 3067.1412698412705) rotate(0 13.429964078856528 169.40654755683022)"><path d="M34.86 309.52 C33.43 316.27, 31.64 322.68, 26.83 338.43 M34.86 309.52 C32.7 317.43, 30.57 325.65, 26.83 338.43" stroke="#1e1e1e" stroke-width="2" fill="none"></path></g></g><mask></mask><g stroke-linecap="round" transform="translate(1649.6091269841272 3542.8555555555563) rotate(0 60 98.57142857142844)"><path d="M30 0 C49.04 3.21, 63.58 -3.77, 90 0 C108.57 -1.52, 121.22 7.59, 120 30 C120.33 82.43, 118.12 135.35, 120 167.14 C121.3 186.68, 113.34 199.47, 90 197.14 C68.67 200.05, 56.18 199.69, 30 197.14 C9.51 199.01, -3.51 189.88, 0 167.14 C-1.29 140.44, -0.73 106.17, 0 30 C-3.09 12.54, 7.89 1.03, 30 0" stroke="none" stroke-width="0" fill="#ffffff"></path><path d="M30 0 C43.76 -0.81, 61.55 0.73, 90 0 M30 0 C45.28 0.34, 59.69 -1.03, 90 0 M90 0 C110.58 -1.07, 119.37 9.06, 120 30 M90 0 C110.38 0.14, 120.81 9.81, 120 30 M120 30 C119.17 82.92, 119.66 136.31, 120 167.14 M120 30 C120.23 63.51, 120.17 98.19, 120 167.14 M120 167.14 C118.95 188.15, 111.45 198.22, 90 197.14 M120 167.14 C118.15 189.38, 110.76 195.8, 90 197.14 M90 197.14 C74.59 194.9, 61.51 196.87, 30 197.14 M90 197.14 C75.04 197, 60.04 196.23, 30 197.14 M30 197.14 C10.26 197.37, -1.94 185.32, 0 167.14 M30 197.14 C8.63 195.96, 0.28 184.92, 0 167.14 M0 167.14 C-1.01 129.96, 1.22 90.52, 0 30 M0 167.14 C0.28 130.8, 1.45 91.74, 0 30 M0 30 C1.98 8.8, 11.78 -0.37, 30 0 M0 30 C-1.2 12.03, 9.32 -0.4, 30 0" stroke="#1e1e1e" stroke-width="2" fill="none"></path></g><g transform="translate(1657.5778769841272 3620.726984126985) rotate(0 52.03125 20.700000000000045)"><text x="52.03125" y="0" font-family="Helvetica, Segoe UI Emoji" font-size="36px" fill="#1e1e1e" text-anchor="middle" style="white-space: pre;" direction="ltr" dominant-baseline="text-before-edge">Cache</text></g><g transform="translate(1629.6091269841268 3751.4269841269847) rotate(0 88.3388671875 20.700000000000045)"><text x="0" y="0" font-family="Helvetica, Segoe UI Emoji" font-size="36px" fill="#1e1e1e" text-anchor="start" style="white-space: pre;" direction="ltr" dominant-baseline="text-before-edge">Timeline(s)</text></g><g stroke-linecap="round"><g transform="translate(1428.1805555555554 3502.218562651454) rotate(0 104.6911439794909 39.071042921436856)"><path d="M0.69 -0.63 C35.56 12.16, 174.78 64.53, 209.8 77.84 M-0.41 1.65 C34.24 15.06, 173.6 65.6, 208.74 78.78" stroke="#1e1e1e" stroke-width="2" fill="none"></path></g><g transform="translate(1428.1805555555554 3502.218562651454) rotate(0 104.6911439794909 39.071042921436856)"><path d="M178.74 78.66 C188.02 78.19, 197.5 79.88, 208.74 78.78 M178.74 78.66 C187.89 79.05, 198.06 79.22, 208.74 78.78" stroke="#1e1e1e" stroke-width="2" fill="none"></path></g><g transform="translate(1428.1805555555554 3502.218562651454) rotate(0 104.6911439794909 39.071042921436856)"><path d="M185.83 59.4 C192.84 65.61, 199.88 73.93, 208.74 78.78 M185.83 59.4 C192.56 66.03, 200.45 72.4, 208.74 78.78" stroke="#1e1e1e" stroke-width="2" fill="none"></path></g></g><mask></mask><g stroke-linecap="round"><g transform="translate(395.3234126984129 3098.569841269842) rotate(0 197.1086147212833 1.4215939123987482)"><path d="M-0.01 0.07 C65.68 0.54, 328.43 2.3, 394.15 2.74 M-0.2 -0.03 C65.53 0.47, 328.68 2.4, 394.42 2.87" stroke="#1e1e1e" stroke-width="2" fill="none"></path></g><g transform="translate(395.3234126984129 3098.569841269842) rotate(0 197.1086147212833 1.4215939123987482)"><path d="M366.16 12.93 C375.06 9.55, 383.46 6.77, 394.42 2.87 M366.16 12.93 C371.99 10.77, 377.63 8.72, 394.42 2.87" stroke="#1e1e1e" stroke-width="2" fill="none"></path></g><g transform="translate(395.3234126984129 3098.569841269842) rotate(0 197.1086147212833 1.4215939123987482)"><path d="M366.3 -7.59 C375.14 -4.61, 383.5 -1.03, 394.42 2.87 M366.3 -7.59 C372.09 -5.58, 377.7 -3.45, 394.42 2.87" stroke="#1e1e1e" stroke-width="2" fill="none"></path></g></g><mask></mask><g transform="translate(503.46626984127 3118.569841269842) rotate(0 101.01269531249994 20.700000000000045)"><text x="0" y="0" font-family="Helvetica, Segoe UI Emoji" font-size="36px" fill="#1e1e1e" text-anchor="start" style="white-space: pre;" direction="ltr" dominant-baseline="text-before-edge">GET(tweets)</text></g><g stroke-linecap="round" transform="translate(1543.8948412698412 3179.9984126984136) rotate(0 68.57142857142901 87.14285714285711)"><path d="M32 0 C55.65 3.92, 73.16 -0.49, 105.14 0 C123.58 3.57, 135.53 10.6, 137.14 32 C140.13 65.76, 142.18 96, 137.14 142.29 C137.8 160.84, 129.62 177.35, 105.14 174.29 C91.02 176.55, 73.13 176.97, 32 174.29 C8.02 170.73, 0.36 160.87, 0 142.29 C1.83 108.78, 0.68 79.8, 0 32 C-1.77 12.08, 10.81 -2.07, 32 0" stroke="none" stroke-width="0" fill="#ffffff"></path><path d="M32 0 C47.06 -1.3, 62.46 -2.01, 105.14 0 M32 0 C47.27 0.75, 63.17 -0.91, 105.14 0 M105.14 0 C125.84 -0.44, 138.92 10.26, 137.14 32 M105.14 0 C124.61 0.92, 139.41 11.76, 137.14 32 M137.14 32 C139.12 62.92, 137.51 91.3, 137.14 142.29 M137.14 32 C136.6 61.76, 136.79 93.53, 137.14 142.29 M137.14 142.29 C138.34 164.62, 125.25 175.42, 105.14 174.29 M137.14 142.29 C137.27 163.49, 127.66 173.06, 105.14 174.29 M105.14 174.29 C84.57 175.89, 66.33 173.09, 32 174.29 M105.14 174.29 C84.81 173.65, 66.39 172.9, 32 174.29 M32 174.29 C11.52 176.05, 0.78 161.93, 0 142.29 M32 174.29 C11.48 174.18, -2.08 165.16, 0 142.29 M0 142.29 C1.13 103.44, 0.57 63.45, 0 32 M0 142.29 C1.48 104.61, 0.84 67.61, 0 32 M0 32 C1.62 11.21, 10.3 1.17, 32 0 M0 32 C-1.39 10.63, 12.01 -2.17, 32 0" stroke="#1e1e1e" stroke-width="2" fill="none"></path></g><g transform="translate(1560.4350198412699 3246.4412698412707) rotate(0 52.03125 20.700000000000045)"><text x="52.03125" y="0" font-family="Helvetica, Segoe UI Emoji" font-size="36px" fill="#1e1e1e" text-anchor="middle" style="white-space: pre;" direction="ltr" dominant-baseline="text-before-edge">Cache</text></g><g transform="translate(1518.1805555555557 3365.712698412699) rotate(0 141.0556640625 20.700000000000045)"><text x="0" y="0" font-family="Helvetica, Segoe UI Emoji" font-size="36px" fill="#1e1e1e" text-anchor="start" style="white-space: pre;" direction="ltr" dominant-baseline="text-before-edge">Followers relation</text></g><g stroke-linecap="round"><g transform="translate(1383.8948412698414 3399.9984126984136) rotate(0 71.85887266103907 -42.29925506907239)"><path d="M0.37 -0.56 C24.44 -14.49, 120.59 -70.54, 144.61 -84.75 M-0.89 1.76 C23.02 -12.39, 119.71 -71.98, 143.83 -86.36" stroke="#1e1e1e" stroke-width="2" fill="none"></path></g><g transform="translate(1383.8948412698414 3399.9984126984136) rotate(0 71.85887266103907 -42.29925506907239)"><path d="M125.06 -62.96 C130.34 -69.95, 138.87 -77.66, 143.83 -86.36 M125.06 -62.96 C131.38 -70.53, 135.4 -77.32, 143.83 -86.36" stroke="#1e1e1e" stroke-width="2" fill="none"></path></g><g transform="translate(1383.8948412698414 3399.9984126984136) rotate(0 71.85887266103907 -42.29925506907239)"><path d="M114.4 -80.5 C122.92 -81.93, 134.85 -84.04, 143.83 -86.36 M114.4 -80.5 C123.74 -82.81, 130.89 -84.43, 143.83 -86.36" stroke="#1e1e1e" stroke-width="2" fill="none"></path></g></g><mask></mask><g mask="url(#mask-wAaiU26c7iFNKIEm5VJUo)" stroke-linecap="round"><g transform="translate(955.3234126984128 3231.4269841269847) rotate(0 81.82406314121829 89.82878588845483)"><path d="M-1.1 0.22 C26.52 30.09, 137.08 150.26, 164.74 180.37 M0.53 -0.72 C28.11 29.3, 136.72 148.49, 164.04 178.45" stroke="#1e1e1e" stroke-width="2" fill="none"></path></g><g transform="translate(955.3234126984128 3231.4269841269847) rotate(0 81.82406314121829 89.82878588845483)"><path d="M137.46 164.53 C143.86 168.63, 150.03 171.95, 164.04 178.45 M137.46 164.53 C146.54 169.38, 157.1 175.81, 164.04 178.45" stroke="#1e1e1e" stroke-width="2" fill="none"></path></g><g transform="translate(955.3234126984128 3231.4269841269847) rotate(0 81.82406314121829 89.82878588845483)"><path d="M152.63 150.7 C155.78 157.74, 158.58 164.13, 164.04 178.45 M152.63 150.7 C156.14 160.61, 161.03 172.21, 164.04 178.45" stroke="#1e1e1e" stroke-width="2" fill="none"></path></g></g><mask id="mask-wAaiU26c7iFNKIEm5VJUo"><rect x="0" y="0" fill="#fff" width="1219.6091269841272" height="3511.4269841269847"></rect><rect x="1016.9096292162696" y="3309.9269841269847" fill="#000" width="41.11328125" height="23" opacity="1"></rect></mask><g transform="translate(1016.9096292162699 3309.9269841269847) rotate(0 20.23784662336118 11.328785888454831)"><text x="20.556640625" y="0" font-family="Helvetica, Segoe UI Emoji" font-size="20px" fill="#1e1e1e" text-anchor="middle" style="white-space: pre;" direction="ltr" dominant-baseline="text-before-edge">GET</text></g><g transform="translate(1001.6682787698414 2922.0698412698416) rotate(0 27.240294994413944 12.479798375843075)"><text x="27.2265625" y="0" font-family="Helvetica, Segoe UI Emoji" font-size="20px" fill="#1e1e1e" text-anchor="middle" style="white-space: pre;" direction="ltr" dominant-baseline="text-before-edge">POST</text></g></svg>